<?xml version="1.0" encoding="UTF-8" standalone="no"?>
<svg width="132px" height="166px" viewBox="0 0 132 166" version="1.1" xmlns="http://www.w3.org/2000/svg" xmlns:xlink="http://www.w3.org/1999/xlink" xmlns:sketch="http://www.bohemiancoding.com/sketch/ns">
    <!-- Generator: Sketch 3.2.2 (9983) - http://www.bohemiancoding.com/sketch -->
    <title>jue logo</title>
    <desc>Created with Sketch.</desc>
    <defs></defs>
    <g id="Page-1" stroke="none" stroke-width="1" fill="none" fill-rule="evenodd" sketch:type="MSPage">
        <g id="splashpage" sketch:type="MSArtboardGroup" transform="translate(-480.000000, -935.000000)" fill="#E4E4E4">
            <g id="jue-logo" sketch:type="MSLayerGroup" transform="translate(480.000000, 935.000000)">
                <path d="M32.2247619,30.0481102 C32.2394286,31.4422288 32.0515556,32.5148983 31.7721905,32.9847627 C31.4725714,33.420161 31.3573333,33.6079661 30.2489524,33.6649407 C28.776,33.6529831 28.2382222,33.2984746 27.9630476,32.9960169 C27.6899683,32.6900424 27.5,32.1020085 27.5020952,31.2108136 C27.4846349,29.6605424 28.063619,27.6840169 28.1537143,26.0169831 L28.2410159,23.6880593 L26.1101587,24.5954322 C24.5848254,25.2531017 22.683746,25.4324661 21.3218413,25.426839 C20.7805714,25.426839 20.3238095,25.4036271 20.0046349,25.3790085 C19.6896508,25.3543898 19.5450794,25.3290678 19.5450794,25.3290678 L18.1817778,25.1454831 L17.9024127,26.5002119 C17.6286349,27.8394661 17.3890794,29.5831695 17.3890794,31.4773983 C17.3974603,34.2262458 17.8828571,37.3380424 19.7287619,39.8955678 C21.5711746,42.470678 24.8341587,44.210161 29.5233016,44.1862458 L29.6608889,44.1862458 C35.9633651,44.1862458 39.6565714,41.3487712 41.4312381,38.3959407 C43.2380317,35.4262288 43.328127,32.5676525 43.3434921,32.0661356 L43.3434921,1.5355 L32.2247619,1.5355 L32.2247619,30.0481102 L32.2247619,30.0481102 Z M72.7466667,0.913 C72.6027937,0.971381356 71.1654603,1.57629661 69.7183492,3.23488983 C68.2670476,4.88574576 66.8674286,7.63459322 66.8765079,11.6396949 C66.8765079,19.1659661 68.5338413,24.8985932 68.8439365,27.0150932 C68.8620952,27.1902373 68.8788571,27.4167288 68.8788571,27.6474407 C68.8788571,28.8516441 68.4814603,30.3273559 67.6426667,31.390178 C66.8024762,32.4480763 65.6375238,33.1964831 63.6205079,33.2154746 C61.5490159,33.1817119 60.7032381,32.2145508 60.0257778,31.013161 C59.7107937,30.4173898 59.5250159,29.7857458 59.420254,29.3158814 C59.3699683,29.0809492 59.3413333,28.8854068 59.3196825,28.7559831 C59.3106032,28.701822 59.3064127,28.6589153 59.3043175,28.635 L59.3043175,1.5355 L48.1904762,1.5355 L48.1904762,28.7032288 C48.1988571,29.4720339 48.1730159,33.1191102 50.1132063,36.7141356 C52.016381,40.3204153 56.1551746,43.7402966 63.4605714,43.7402966 L63.6205079,43.7402966 C70.9552381,43.7846102 75.2427937,40.8240424 77.3492063,37.3049831 C79.4688889,33.8210932 79.596,30.0234915 79.6574603,28.248839 C79.6574603,28.1032373 79.6616508,27.9864746 79.6616508,27.8697119 C79.6574603,25.6237881 79.2244444,24.0221695 78.795619,21.0573814 C78.3674921,18.119322 77.9568254,15.2635593 77.9568254,13.9179746 C77.9568254,13.5965254 77.991746,13.3841017 77.991746,13.3841017 L76.580254,12.9845763 L77.9959365,13.3763644 C78.1097778,12.8713305 78.7648889,11.8612627 79.3948571,11.109339 C79.7140317,10.7309153 80.0192381,10.3918814 80.247619,10.1562458 C80.4655238,9.91990678 80.6010159,9.79892373 80.6010159,9.79892373 L81.675873,8.75861017 L73.656,0.544423729 L72.7466667,0.913 L72.7466667,0.913 Z M95.6839365,32.8778475 L95.6839365,30.975178 L107.086222,26.5712542 L107.086222,12.7271356 L113.148444,12.7271356 L113.148444,1.5355 L84.8452698,1.5355 L84.8452698,43.7367797 L113.647111,43.7367797 L113.647111,32.8778475 L95.6839365,32.8778475 L95.6839365,32.8778475 Z M95.5700952,12.7271356 L107.05619,12.7271356 L95.5700952,18.5934068 L95.5700952,12.7271356 L95.5700952,12.7271356 Z" id="Fill-1" sketch:type="MSShapeGroup"></path>
                <path d="M0.15784127,80.7294576 L18.348,80.7294576 L18.348,61.254 L113.790984,61.254 L113.804952,80.7294576 L131.990222,80.7294576 L131.990222,43.7374831 L0.15784127,43.7374831 L0.15784127,80.7294576 Z" id="Fill-2" sketch:type="MSShapeGroup"></path>
                <path d="M18.2187937,79.9311102 L18.2187937,139.045398 L36.7805079,139.045398 L36.7805079,97.3941695 L95.3640635,97.3941695 L95.3640635,139.045398 L113.926476,139.045398 L113.926476,79.9311102 L18.2187937,79.9311102" id="Fill-3" sketch:type="MSShapeGroup"></path>
                <path d="M18.2187937,165.436585 L18.2187937,147.2835 L56.9353016,147.2835 L56.9353016,95.5210424 L75.0849524,95.5210424 L75.0849524,147.2835 L113.926476,147.2835 L113.926476,165.436585 L18.2187937,165.436585" id="Fill-4" sketch:type="MSShapeGroup"></path>
            </g>
        </g>
    </g>
</svg>