<?xml version="1.0" encoding="UTF-8" standalone="no"?>
<svg width="386px" height="525px" viewBox="0 0 386 525" version="1.1" xmlns="http://www.w3.org/2000/svg" xmlns:xlink="http://www.w3.org/1999/xlink" xmlns:sketch="http://www.bohemiancoding.com/sketch/ns">
    <!-- Generator: Sketch 3.2.2 (9983) - http://www.bohemiancoding.com/sketch -->
    <title>Imported Layers</title>
    <desc>Created with Sketch.</desc>
    <defs>
        <path id="path-1" d="M0.568,424.244 L0.568,0.74 L42.388,42.56 L42.388,424.244 L0.568,424.244 L0.568,424.244 Z"></path>
        <path id="path-3" d="M33.716,34.292 L33.716,161.18 L0.872,161.18 L0.872,0.632 L33.716,34.292 L33.716,34.292 Z"></path>
        <path id="path-5" d="M161.42,31.18 L0.872,31.18 L0.872,0.988 L130.412,0.988 L161.42,31.18 L161.42,31.18 Z"></path>
        <path id="path-7" d="M0.868,42.544 L74.104,42.544 L74.104,78.244 L115.924,78.244 L115.924,42.34 L74.104,0.724 L0.868,0.724 L0.868,42.544 L0.868,42.544 Z"></path>
    </defs>
    <g id="Page-1" stroke="none" stroke-width="1" fill="none" fill-rule="evenodd" sketch:type="MSPage">
        <g id="Imported-Layers" sketch:type="MSLayerGroup">
            <path d="M237.004,511.76 C243.328,508.496 249.652,504.62 255.772,500.336 L255.772,482.384 L238.432,482.384 L238.432,476.672 L255.772,476.672 L255.772,464.024 L261.484,464.024 L261.484,523.592 L255.772,523.592 L255.772,507.68 C251.284,510.74 245.98,513.8 240.268,516.656 L237.004,511.76 L237.004,511.76 Z M275.152,483.608 C282.292,478.712 287.8,474.428 291.88,470.348 L295.552,474.836 C290.452,479.936 283.72,485.24 275.152,490.544 L275.152,513.188 C275.152,515.228 275.152,517.064 278.824,517.064 L286.984,517.064 C288.82,517.064 290.044,516.452 290.86,515.432 C291.472,514.412 291.676,510.536 291.676,504.416 L297.388,505.232 C297.388,512.576 296.98,518.492 295.552,520.328 C293.716,522.572 292.492,522.776 288.616,522.776 L276.172,522.776 C271.276,522.776 269.032,519.308 269.236,514.004 L269.236,462.596 L274.948,462.596 L274.948,483.608 L275.152,483.608 L275.152,483.608 Z" id="Fill-1" fill="#F15757" sketch:type="MSShapeGroup"></path>
            <path d="M302.284,518.288 C309.016,512.984 314.32,508.088 317.788,503.6 L322.276,506.864 C318.604,511.556 313.096,517.064 305.344,522.776 L302.284,518.288 L302.284,518.288 Z M330.028,468.512 L330.028,463.208 L335.74,463.208 L335.74,468.512 L361.852,468.512 L361.852,474.02 L303.712,474.02 L303.712,468.512 L330.028,468.512 L330.028,468.512 Z M330.64,500.336 L310.24,500.336 C309.22,500.336 308.812,499.724 308.812,498.908 L308.812,480.344 C308.812,479.324 309.424,478.916 310.24,478.916 L355.12,478.916 C356.14,478.916 356.752,479.528 356.752,480.344 L356.752,498.908 C356.752,499.928 356.14,500.336 355.12,500.336 L336.352,500.336 L336.352,517.676 C336.352,518.9 335.944,524.204 329.416,524.204 C327.172,524.204 324.112,523.592 320.44,522.572 L320.644,516.86 L325.132,518.288 C326.152,518.492 327.172,518.696 327.988,518.696 C330.232,518.696 330.64,518.084 330.64,516.248 L330.64,500.336 L330.64,500.336 Z M350.836,484.22 L314.524,484.22 C314.32,484.22 314.32,484.22 314.32,484.424 L314.32,494.42 C314.32,494.624 314.32,494.828 314.524,494.828 L350.836,494.828 C351.04,494.828 351.244,494.624 351.244,494.42 L351.244,484.424 L350.836,484.22 L350.836,484.22 Z M358.588,523.796 C352.672,516.452 347.572,511.148 343.084,507.68 L346.96,503.6 C351.856,507.476 357.16,512.984 362.668,519.92 L358.588,523.796 L358.588,523.796 Z" id="Fill-2" fill="#F15757" sketch:type="MSShapeGroup"></path>
            <path d="M23.008,520.736 L23.008,468.716 L31.78,468.716 L31.78,512.372 L55.648,512.372 L55.648,520.736 L23.008,520.736" id="Fill-3" fill="#F15757" sketch:type="MSShapeGroup"></path>
            <path d="M58.708,494.624 C58.708,490.34 59.524,486.464 60.952,483.2 C62.38,479.936 64.42,477.08 66.868,474.632 C69.316,472.388 72.172,470.552 75.232,469.328 C78.496,468.104 81.76,467.492 85.228,467.492 C88.696,467.492 91.96,468.104 95.224,469.328 C98.488,470.552 101.14,472.388 103.588,474.632 C106.036,476.876 108.076,479.732 109.504,483.2 C110.932,486.464 111.748,490.34 111.748,494.624 C111.748,498.908 110.932,502.784 109.504,506.048 C108.076,509.516 106.036,512.372 103.588,514.616 C101.14,516.86 98.284,518.696 95.224,519.92 C91.96,521.144 88.696,521.756 85.228,521.756 C81.76,521.756 78.496,521.144 75.232,519.92 C71.968,518.696 69.316,516.86 66.868,514.616 C64.42,512.372 62.38,509.516 60.952,506.048 C59.32,502.784 58.708,498.908 58.708,494.624 L58.708,494.624 Z M67.684,494.624 C67.684,497.684 68.092,500.54 69.112,502.784 C70.132,505.232 71.356,507.068 72.988,508.7 C74.62,510.332 76.456,511.352 78.496,512.168 C80.536,512.984 82.78,513.392 85.024,513.392 C87.268,513.392 89.308,512.984 91.552,512.168 C93.592,511.352 95.428,510.128 97.06,508.7 C98.692,507.068 99.916,505.232 100.936,502.784 C101.956,500.336 102.364,497.684 102.364,494.624 C102.364,491.564 101.956,488.708 100.936,486.464 C99.916,484.016 98.692,482.18 97.06,480.548 C95.428,478.916 93.592,477.896 91.552,477.08 C89.512,476.264 87.268,475.856 85.024,475.856 C82.78,475.856 80.74,476.264 78.496,477.08 C76.252,477.896 74.62,479.12 72.988,480.548 C71.356,482.18 70.132,484.016 69.112,486.464 C68.296,488.708 67.684,491.564 67.684,494.624 L67.684,494.624 Z" id="Fill-4" fill="#F15757" sketch:type="MSShapeGroup"></path>
            <path d="M117.868,494.624 C117.868,490.34 118.684,486.464 120.112,483.2 C121.54,479.936 123.58,477.08 126.028,474.632 C128.476,472.388 131.332,470.552 134.392,469.328 C137.656,468.104 140.92,467.492 144.388,467.492 C147.856,467.492 151.12,468.104 154.384,469.328 C157.648,470.552 160.3,472.388 162.748,474.632 C165.196,476.876 167.236,479.732 168.664,483.2 C170.092,486.464 170.908,490.34 170.908,494.624 C170.908,498.908 170.092,502.784 168.664,506.048 C167.236,509.516 165.196,512.372 162.748,514.616 C160.3,516.86 157.444,518.696 154.384,519.92 C151.12,521.144 147.856,521.756 144.388,521.756 C140.92,521.756 137.656,521.144 134.392,519.92 C131.128,518.696 128.476,516.86 126.028,514.616 C123.58,512.372 121.54,509.516 120.112,506.048 C118.48,502.784 117.868,498.908 117.868,494.624 L117.868,494.624 Z M126.844,494.624 C126.844,497.684 127.252,500.54 128.272,502.784 C129.292,505.232 130.516,507.068 132.148,508.7 C133.78,510.332 135.616,511.352 137.656,512.168 C139.696,512.984 141.94,513.392 144.184,513.392 C146.428,513.392 148.468,512.984 150.712,512.168 C152.752,511.352 154.588,510.128 156.22,508.7 C157.852,507.068 159.076,505.232 160.096,502.784 C161.116,500.336 161.524,497.684 161.524,494.624 C161.524,491.564 161.116,488.708 160.096,486.464 C159.076,484.016 157.852,482.18 156.22,480.548 C154.588,478.916 152.752,477.896 150.712,477.08 C148.672,476.264 146.428,475.856 144.184,475.856 C141.94,475.856 139.9,476.264 137.656,477.08 C135.412,477.896 133.78,479.12 132.148,480.548 C130.516,482.18 129.292,484.016 128.272,486.464 C127.252,488.708 126.844,491.564 126.844,494.624 L126.844,494.624 Z" id="Fill-5" fill="#F15757" sketch:type="MSShapeGroup"></path>
            <path d="M188.86,500.336 L188.86,520.736 L180.088,520.736 L180.088,468.716 L199.468,468.716 C201.916,468.716 204.16,469.124 206.2,469.94 C208.24,470.756 210.076,471.776 211.504,473.204 C212.932,474.632 214.156,476.264 214.972,478.304 C215.788,480.344 216.196,482.384 216.196,484.628 C216.196,486.872 215.788,489.116 214.972,490.952 C214.156,492.788 213.136,494.624 211.504,496.052 C210.076,497.48 208.24,498.5 206.2,499.316 C204.16,500.132 201.916,500.54 199.468,500.54 L188.86,500.54 L188.86,500.336 L188.86,500.336 Z M198.04,492.584 C200.896,492.584 202.936,491.972 204.568,490.544 C206.2,489.116 207.016,487.076 207.016,484.628 C207.016,482.18 206.2,480.14 204.568,478.712 C202.936,477.284 200.692,476.468 198.04,476.468 L188.86,476.468 L188.86,492.584 L198.04,492.584 L198.04,492.584 Z" id="Fill-6" fill="#F15757" sketch:type="MSShapeGroup"></path>
            <path d="M0.568,346.724 L385.924,346.724 L385.924,388.544 L0.568,388.544 L0.568,346.724 Z" id="Fill-7" fill="#F15757" sketch:type="MSShapeGroup"></path>
            <path d="M0.568,0.74 L385.924,0.74 L385.924,42.56 L0.568,42.56 L0.568,0.74 Z" id="Fill-9" fill="#48B6E8" sketch:type="MSShapeGroup"></path>
            <path d="M344.104,0.74 L385.924,0.74 L385.924,424.244 L344.104,424.244 L344.104,0.74 Z" id="Fill-11" fill="#48B6E8" sketch:type="MSShapeGroup"></path>
            <g id="Group-15">
                <mask id="mask-2" sketch:name="Clip 14" fill="white">
                    <use xlink:href="#path-1"></use>
                </mask>
                <g id="Clip-14"></g>
                <path d="M0.568,0.74 L42.388,0.74 L42.388,424.244 L0.568,424.244 L0.568,0.74 Z" id="Fill-13" fill="#F15757" sketch:type="MSShapeGroup" mask="url(#mask-2)"></path>
            </g>
            <path d="M107.872,117.632 L268.42,117.632 L268.42,151.292 L107.872,151.292 L107.872,117.632 Z" id="Fill-16" fill="#F15757" sketch:type="MSShapeGroup"></path>
            <path d="M237.412,117.632 L268.42,117.632 L268.42,278.18 L237.412,278.18 L237.412,117.632 Z" id="Fill-18" fill="#F15757" sketch:type="MSShapeGroup"></path>
            <g id="Group-22" transform="translate(107.000000, 117.000000)">
                <mask id="mask-4" sketch:name="Clip 21" fill="white">
                    <use xlink:href="#path-3"></use>
                </mask>
                <g id="Clip-21"></g>
                <path d="M0.872,0.632 L33.716,0.632 L33.716,161.18 L0.872,161.18 L0.872,0.632 Z" id="Fill-20" fill="#3FADE5" sketch:type="MSShapeGroup" mask="url(#mask-4)"></path>
            </g>
            <g id="Group-25" transform="translate(107.000000, 247.000000)">
                <mask id="mask-6" sketch:name="Clip 24" fill="white">
                    <use xlink:href="#path-5"></use>
                </mask>
                <g id="Clip-24"></g>
                <path d="M0.872,0.988 L161.42,0.988 L161.42,31.18 L0.872,31.18 L0.872,0.988 Z" id="Fill-23" fill="#3FADE5" sketch:type="MSShapeGroup" mask="url(#mask-6)"></path>
            </g>
            <path d="M344.104,413.636 L385.924,413.636 L385.924,424.244 L344.104,424.244 L344.104,413.636 Z" id="Fill-26" fill="#EF4D4D" sketch:type="MSShapeGroup"></path>
            <path d="M344.104,410.78 L385.924,410.78 L385.924,423.224 L344.104,423.224 L344.104,410.78 Z" id="Fill-28" fill="#EF4D4D" sketch:type="MSShapeGroup"></path>
            <g id="Group-32" transform="translate(270.000000, 346.000000)">
                <mask id="mask-8" sketch:name="Clip 31" fill="white">
                    <use xlink:href="#path-7"></use>
                </mask>
                <g id="Clip-31"></g>
                <path d="M0.868,0.724 L115.924,0.724 L115.924,78.244 L0.868,78.244 L0.868,0.724 Z" id="Fill-30" fill="#F15757" sketch:type="MSShapeGroup" mask="url(#mask-8)"></path>
            </g>
        </g>
    </g>
</svg>