<?xml version="1.0" encoding="UTF-8" standalone="no"?>
<svg width="60px" height="71px" viewBox="0 0 60 71" version="1.1" xmlns="http://www.w3.org/2000/svg" xmlns:xlink="http://www.w3.org/1999/xlink" xmlns:sketch="http://www.bohemiancoding.com/sketch/ns">
    <!-- Generator: Sketch 3.2.2 (9983) - http://www.bohemiancoding.com/sketch -->
    <title>music</title>
    <desc>Created with Sketch.</desc>
    <defs></defs>
    <g id="Page-1" stroke="none" stroke-width="1" fill="none" fill-rule="evenodd" sketch:type="MSPage">
        <g id="Artboard-1" sketch:type="MSArtboardGroup" transform="translate(-227.000000, -34.000000)" fill="#FFFFFF">
            <path d="M242.304404,88.688 C239.917404,88.009 237.009404,88.16 234.177404,89.346 C228.779404,91.603 225.775404,96.68 227.475404,100.68 C229.170404,104.685 234.923404,106.1 240.320404,103.843 C244.834404,101.957 247.627404,98.103 247.444404,94.548 L247.494404,59.32 L280.860404,54.087 L280.860404,80.299 C278.509404,79.686 275.667404,79.87 272.913404,81.022 C267.519404,83.279 264.514404,88.356 266.211404,92.359 C267.909404,96.363 273.662404,97.78 279.058404,95.52 C283.366404,93.718 286.097404,90.126 286.183404,86.71 L286.233404,34 L242.304404,41.604 L242.304404,88.688 Z M280.861404,46.097 L247.495404,51.874 L247.495404,48.154 L280.861404,42.922 L280.861404,46.097 L280.861404,46.097 Z" id="music" sketch:type="MSShapeGroup"></path>
        </g>
    </g>
</svg>